PathFileType	4	(X/Y/Z)	/Users/visionmauri/Downloads/Videos/OAW04-top_Sports2D/OAW04-top_Sports2D_m_person00.trc
DataRate	CameraRate	NumFrames	NumMarkers	Units	OrigDataRate	OrigDataStartFrame	OrigNumFrames
30.0	30.0	7	22	m	30.0	1183	2367
Frame#	Time	Hip			RHip			RKnee			RAnkle			RBigToe			RSmallToe			RHeel			LHip			LKnee			LAnkle			LBigToe			LSmallToe			LHeel			Neck			Head			Nose			RShoulder			RElbow			RWrist			LShoulder			LElbow			LWrist			
		X1	Y1	Z1	X2	Y2	Z2	X3	Y3	Z3	X4	Y4	Z4	X5	Y5	Z5	X6	Y6	Z6	X7	Y7	Z7	X8	Y8	Z8	X9	Y9	Z9	X10	Y10	Z10	X11	Y11	Z11	X12	Y12	Z12	X13	Y13	Z13	X14	Y14	Z14	X15	Y15	Z15	X16	Y16	Z16	X17	Y17	Z17	X18	Y18	Z18	X19	Y19	Z19	X20	Y20	Z20	X21	Y21	Z21	X22	Y22	Z22
1183	39.45	8.043567305572585	-0.10914022572584048	0.0301	8.005293505908208	0.007329591747678455	0.0301	7.626384983770159	-0.11063298319471937	0.129	7.434656869382261	-0.1758512711990784	0.023	7.2529263374823945	-0.21187367212101613	0.2179	7.2742871100124855	-0.14038040099425567	0.1804	7.445164188430041	-0.1900085079468361	-0.0119	8.076798893151398	-0.22078681841016298	0.0301	7.625354264536088	-0.3152408995335986	0.129	7.11994416615487	-0.4091815686333222	0.023	6.9747790909777	-0.4836818239664249	0.2179	7.010561422599663	-0.5277022051101035	0.1804	7.060945033340117	-0.38729430654740243	-0.0119	8.621511794001004	0.06393472290299455	0.0008	8.894889092866924	0.16970192331684808	0.0655	8.629028312935498	0.08879457410488417	0.1076	8.533975578714394	0.2753139198572264	-0.01275	8.205026894825416	0.26679506972467393	0.0702	7.928176647786285	0.1934261033489078	0.1076	8.672751906531348	-0.17075669231995239	-0.01275	8.441644597453475	-0.3534141515097184	0.0702	8.207887736289363	-0.4514817355851237	0.1076
1184	39.483347421808965	8.032910254874555	-0.11946705441475712	0.0301	7.9948612112961595	-0.002390743730134167	0.0301	7.6022416671288084	-0.11914510307356654	0.129	7.4325443510763325	-0.17254295455659852	0.023	7.241859669774599	-0.20961146626289612	0.2179	7.266551092646396	-0.13775086390126448	0.1804	7.448236658606674	-0.1821471586157107	-0.0119	8.06484596160346	-0.2300827109002348	0.0301	7.612451413333411	-0.3225488357059573	0.129	7.1206566478330755	-0.40723701025779485	0.023	6.974821564426064	-0.48153642695590926	0.2179	7.01201544753877	-0.5262994177098538	0.1804	7.062054525694634	-0.3858844838946765	-0.0119	8.616340786981068	0.05778476334312674	0.0008	8.89016602795014	0.16847624744598888	0.0655	8.620342515592817	0.08496611209639018	0.1076	8.526799159897498	0.2742010811521751	-0.01275	8.190771584978256	0.25851176387809877	0.0702	7.906712340499462	0.18494041194016436	0.1076	8.666801501663855	-0.1792189758060743	-0.01275	8.419482875555822	-0.3665153571479713	0.0702	8.17180820116154	-0.46321007946949855	0.1076
1185	39.51669484361793	8.022526491899605	-0.12955144558165593	0.0301	7.983789108883051	-0.014324596079168889	0.0301	7.589434043923578	-0.1273105131686863	0.129	7.419694378751239	-0.17420809457047842	0.023	7.22798618624936	-0.20341896960301653	0.2179	7.253667069096256	-0.1349071295848388	0.1804	7.4270227457956866	-0.1850482904552375	-0.0119	8.051766600132863	-0.2389601744301893	0.0301	7.604863163428997	-0.3297566209399669	0.129	7.121517242804215	-0.40781856846977116	0.023	6.974885091124521	-0.4821199629446727	0.2179	7.012079582111554	-0.5255067957542192	0.1804	7.061844150205097	-0.38634377851198937	-0.0119	8.613115918501467	0.0520559534444367	0.0008	8.889184255113811	0.16699681182567544	0.0655	8.615242701854266	0.08200357492210053	0.1076	8.519286651680982	0.27321196529597924	-0.01275	8.17542506397405	0.249856301161822	0.0702	7.8780146565054485	0.17524244517352686	0.1076	8.659710107464619	-0.18700192298669716	-0.01275	8.396657267141421	-0.3778244673518326	0.0702	8.130475287078493	-0.4752525125038022	0.1076
1186	39.55004226542689	8.012791869664055	-0.1372192127577728	0.0301	7.9732291683712715	-0.025297401239243848	0.0301	7.580294923755454	-0.13415478887719653	0.129	7.380789974155984	-0.18372315005534345	0.023	7.196576342974976	-0.20124045048097405	0.2179	7.222132378832343	-0.13742466461676572	0.1804	7.371358631102738	-0.19886182489225268	-0.0119	8.039437434725818	-0.24793034120365448	0.0301	7.598467756989544	-0.33764519938933396	0.129	7.120355398623798	-0.4092191304931715	0.023	6.971884902316482	-0.48416532788150785	0.2179	7.009331119486571	-0.5254502322077	0.1804	7.0607077368120095	-0.3880200499855748	-0.0119	8.611665945667173	0.048194905679725085	0.0008	8.89405804922683	0.16740814634965945	0.0655	8.61634005412519	0.08166524809182207	0.1076	8.512936477322192	0.2718081833808758	-0.01275	8.159908047400004	0.24225499686351673	0.0702	7.850358499563654	0.16535661733501097	0.1076	8.65267847369044	-0.19458822088089686	-0.01275	8.376417068731746	-0.3853723721985961	0.0702	8.094082318718844	-0.48426139539752494	0.1076
1187	39.58338968723585	8.002563761236466	-0.1428406295681306	0.0301	7.962977376821947	-0.03255841526684395	0.0301	7.562978562617589	-0.1410978948085908	0.129	7.306795750297919	-0.19980149023758886	0.023	7.131146267647901	-0.21143363772260343	0.2179	7.156970668122352	-0.1500755922959276	0.1804	7.278937642909523	-0.2184178626643983	-0.0119	8.028532808737554	-0.2569162785427809	0.0301	7.589066373915337	-0.34601457858881396	0.129	7.118420495749825	-0.4107579038279082	0.023	6.965956390500319	-0.4844312616313421	0.2179	7.005740837740505	-0.5255909067628415	0.1804	7.059699570202609	-0.3900207633825289	-0.0119	8.609710905035438	0.046032078160629084	0.0008	8.900165036397247	0.16915951408048446	0.0655	8.6194022547633	0.0828367863262023	0.1076	8.507082748939668	0.26948657774808865	-0.01275	8.145402115112448	0.2366720349544089	0.0702	7.831488976311887	0.15766876489308906	0.1076	8.645751702721736	-0.20259568543425605	-0.01275	8.357366611105261	-0.39112572860703687	0.0702	8.06255719706987	-0.48897731690723706	0.1076
1188	39.616737109044806	7.990162773884297	-0.14805363329960503	0.0301	7.949694224293238	-0.036919324075724715	0.0301	7.5339495469850855	-0.15039633525971072	0.129	7.209077214218065	-0.21863994536299824	0.023	7.037979937419994	-0.23203903247577742	0.2179	7.062093160703055	-0.1712831910504628	0.1804	7.166173220542462	-0.2405035669469847	-0.0119	8.015572113768174	-0.26574385777766457	0.0301	7.573747792721976	-0.35489655400109865	0.129	7.117808000462958	-0.41182581116878003	0.023	6.961394131901581	-0.48259516341489	0.2179	7.003362302129006	-0.5261899902568812	0.1804	7.05869121362252	-0.3919622490535885	-0.0119	8.605205926825525	0.04503014314603897	0.0008	8.895608811417103	0.16893028649859726	0.0655	8.614450367801956	0.08225720457068929	0.1076	8.499873817624264	0.2666007248709617	-0.01275	8.132754478673172	0.23392376508438997	0.0702	7.82071909144743	0.1545011177818086	0.1076	8.638183017868998	-0.2096815679384995	-0.01275	8.337115483737671	-0.39753095959024926	0.0702	8.030455249777566	-0.49090882116931683	0.1076
1189	39.65008453085377	7.973050216159861	-0.1538177208306025	0.0301	7.92969632575901	-0.041870559432817415	0.0301	7.49651145844636	-0.16208579445749796	0.129	7.110072660026537	-0.23817747095261502	0.023	6.93859781683759	-0.2559941730469825	0.2179	6.957486693791892	-0.19650103552003576	0.1804	7.0590186135507444	-0.26351683531908315	-0.0119	7.995589915562466	-0.275039818450607	0.0301	7.551486149240621	-0.3644202657563881	0.129	7.117216445505857	-0.4116226856188834	0.023	6.961992758487517	-0.48174782103997704	0.2179	7.003111330925471	-0.5271384058277276	0.1804	7.057116166156734	-0.3935070240353306	-0.0119	8.595648888302856	0.043906686785975514	0.0008	8.87514555368602	0.16664533991558755	0.0655	8.5970714693402	0.07929163123100716	0.1076	8.490212748211981	0.2637255870511234	-0.01275	8.120968634838075	0.23378993952889027	0.0702	7.810949047373892	0.15518265948809842	0.1076	8.628663928445711	-0.21340193192633786	-0.01275	8.315280165907431	-0.4037078162596989	0.0702	7.999111228961834	-0.49132051539065086	0.1076
